PathFileType	4	(X/Y/Z)	Walking02.trc	
DataRate	CameraRate	NumFrames	NumMarkers	Units	OrigDataRate	OrigDataStartFrame	OrigNumFrames	
100.00	100.00	8	19	mm	100.00	367	98	
Frame#	Time	RPSI			LPSI			RASI			LASI			RTHI			RKNE			RHFB			RTUB			RSHN			RANK			RLCA			RSTL			RPCA			RCPG			RHEE			RP5M			RP1M			RD5M			RTOE			
		X1	Y1	Z1	X2	Y2	Z2	X3	Y3	Z3	X4	Y4	Z4	X5	Y5	Z5	X6	Y6	Z6	X7	Y7	Z7	X8	Y8	Z8	X9	Y9	Z9	X10	Y10	Z10	X11	Y11	Z11	X12	Y12	Z12	X13	Y13	Z13	X14	Y14	Z14	X15	Y15	Z15	X16	Y16	Z16	X17	Y17	Z17	X18	Y18	Z18	X19	Y19	Z19	

50	0.490	-130.58131	889.54639	-52.46424	-127.45470	884.04651	-144.14879	47.78838	839.24231	55.65977	75.79100	835.58954	-184.87570	-123.60883	556.09052	69.80521	-169.92479	422.51862	45.30738	-195.76714	387.68701	43.27037	-145.56857	346.51947	-5.59063	-196.76102	290.65369	-13.88541	-409.73117	129.50937	7.41407	-432.49207	117.28096	1.50408	-418.88708	110.25198	-63.42965	-436.40594	147.93115	-37.54566	-466.65103	149.76422	-39.93961	-464.35971	116.65030	-44.21028	-370.52527	37.92678	30.36112	-322.12656	73.58778	-43.03305	-342.49942	22.35870	38.06216	-299.06985	34.06432	1.80899 
51	0.500	-115.36536	889.04236	-52.32344	-112.44167	884.14893	-144.27702	65.03915	838.28076	53.36689	91.24786	836.58630	-187.03323	-104.64396	553.50598	69.01790	-150.33064	420.06403	46.02299	-176.97794	386.00226	44.70954	-127.49375	343.22281	-4.33458	-181.09781	289.07755	-12.61802	-400.19330	137.03687	8.61742	-423.12170	125.66429	3.24210	-410.07788	118.75650	-62.20358	-425.93051	157.32051	-36.16522	-455.93579	161.08888	-37.40466	-455.02463	127.92367	-42.84301	-367.49762	42.42096	31.28385	-316.64355	74.43120	-42.84960	-340.43420	25.27262	38.04491	-297.40347	34.33743	1.50160 
52	0.510	-99.32248	888.47766	-51.64930	-97.52595	885.06622	-144.01602	82.79589	838.11572	50.04610	106.50466	838.51270	-189.41626	-84.26358	550.79980	68.26804	-128.85294	417.55368	47.29887	-156.40694	384.17444	46.41390	-107.43389	340.00458	-2.39415	-163.56233	287.55161	-10.92236	-388.50629	144.77136	9.92036	-411.53506	134.36171	4.14769	-398.77023	127.71781	-60.97177	-413.03046	167.07864	-34.81828	-441.86621	173.02736	-36.00007	-443.09421	139.92401	-41.95529	-362.83740	47.78312	31.20744	-311.06430	74.88474	-42.85467	-337.85696	28.24888	37.73768	-295.53616	34.51484	1.06316 
53	0.520	-83.53330	887.84052	-50.60567	-82.65217	886.21844	-143.46121	100.13821	837.99194	46.44461	121.78220	841.41064	-192.06731	-62.82877	548.09192	67.99340	-105.57232	414.97165	49.31832	-133.96898	382.41409	48.69418	-85.49188	336.65222	0.43580	-144.25804	285.86218	-8.90090	-374.75424	152.66379	11.01787	-397.93900	143.85089	4.45675	-385.08084	137.14734	-59.69398	-397.56281	177.26218	-33.36487	-425.51288	184.83241	-35.51051	-428.68008	152.46359	-41.12599	-357.64664	53.46758	31.56472	-304.15283	75.79242	-42.07162	-334.69763	31.77241	37.74699	-293.63599	34.67089	0.46986 
54	0.530	-67.76515	887.15515	-49.40504	-67.71797	887.19928	-142.66724	116.82717	837.87109	42.86239	136.64990	844.80060	-194.95529	-40.54752	545.40625	68.37997	-80.96852	412.26709	51.64627	-109.96781	380.52081	51.41811	-61.98995	333.09860	4.09100	-122.83092	284.36472	-5.76241	-359.29883	161.61722	12.39339	-382.60989	154.94406	5.56852	-369.76529	147.73761	-58.30834	-380.32703	188.66635	-31.76095	-407.16721	197.85681	-34.56754	-412.39429	166.34676	-40.18168	-352.17935	60.54041	32.15764	-296.56995	77.99429	-41.04872	-331.69260	36.17874	37.95572	-291.33212	35.67104	0.12463 
55	0.540	-52.35606	886.58917	-48.05354	-52.97000	888.10065	-141.69214	133.39549	838.33441	38.90047	151.04228	848.26373	-197.87416	-17.43353	542.67084	69.32294	-55.43448	409.34586	54.22523	-84.63081	378.27286	54.42660	-37.30029	329.71561	8.18823	-100.34667	282.89233	-1.96969	-344.02393	171.94113	13.62984	-366.77594	168.12497	7.42063	-353.23758	159.91074	-57.07868	-361.55716	201.14510	-30.28263	-387.28937	212.19716	-32.81631	-394.18100	181.99637	-38.95366	-345.17856	70.25622	32.92426	-287.50293	83.23045	-39.65412	-327.68231	42.41866	38.69311	-287.16754	38.81696	0.90701 
56	0.550	-37.39513	886.28265	-46.82542	-38.87898	889.19202	-140.54370	149.60555	839.01862	34.89429	164.84923	851.55658	-200.72806	6.30797	539.76556	70.47247	-29.09727	406.24347	57.02370	-58.01475	375.87756	57.79866	-11.75167	327.07217	12.34121	-77.29544	281.58771	1.38767	-326.61063	183.05107	14.88890	-348.78592	181.73343	9.94661	-334.77878	172.26637	-55.81465	-340.62711	213.80081	-29.10337	-364.90674	226.78606	-31.19067	-373.78342	197.81174	-37.82501	-334.63666	82.28373	34.16699	-275.93970	90.08370	-38.25350	-320.47247	51.06639	39.53855	-280.82236	43.51775	2.39611 
57	0.560	-22.60917	886.22375	-45.66914	-25.06229	890.51385	-139.46904	165.42511	839.73193	31.16231	178.30820	854.53442	-203.63094	30.47336	536.97754	71.33575	-1.98889	403.16708	59.93893	-30.55920	373.64969	61.43277	14.39756	325.03668	15.73520	-53.31127	280.99213	4.27466	-304.01721	194.36351	17.51763	-327.32803	193.88254	9.98200	-314.25607	184.10994	-55.04708	-317.25638	225.70366	-27.95473	-340.28513	240.53976	-30.03895	-351.15820	212.70586	-37.01221	-321.56946	94.24836	34.81778	-262.09375	97.44401	-37.33903	-310.89819	61.53487	39.63572	-272.21616	49.00507	3.81949 
